<svg xmlns="http://www.w3.org/2000/svg" viewBox="0 0 50 50"><g id="EinLogo"><g id="POLYLINE"><polygon points="18.49 8.1 32.53 0 46.57 8.1 32.53 16.21 18.49 8.1"/></g><g id="POLYLINE-2" data-name="POLYLINE"><polygon points="32.87 33.01 46.57 25.1 32.87 17.19 32.87 33.01"/></g><g id="POLYLINE-3" data-name="POLYLINE"><polygon points="32.87 50 46.57 42.09 32.87 34.18 32.87 50"/></g><g id="POLYLINE-4" data-name="POLYLINE"><polygon points="32.19 34.18 32.19 50 18.49 42.09 32.19 34.18"/></g></g><g id="PinLogo"><g id="POLYLINE-5" data-name="POLYLINE"><polygon points="3.77 33.59 17.47 41.5 17.47 25.69 3.77 33.59"/></g><g id="POLYLINE-6" data-name="POLYLINE"><polygon points="18.15 41.5 32.19 33.4 32.19 17.19 18.15 25.29 18.15 41.5"/></g><g id="POLYLINE-7" data-name="POLYLINE"><polygon points="3.77 16.6 17.81 8.5 31.85 16.6 17.81 24.71 3.77 16.6"/></g><g id="POLYLINE-8" data-name="POLYLINE"><polygon points="3.43 50 3.43 34.18 17.13 42.09 3.43 50"/></g></g></svg>